<?xml version="1.0" encoding="utf-8"?>
<!DOCTYPE svg PUBLIC "-//W3C//DTD SVG 1.1//EN" "http://www.w3.org/Graphics/SVG/1.1/DTD/svg11.dtd">
<svg version="1.1" fill="#edf0f1" id="Layer_1" xmlns="http://www.w3.org/2000/svg" xmlns:xlink="http://www.w3.org/1999/xlink" x="0px" y="0px"
	 viewBox="346.0822 84.4584 1971.8356 1831.0833" enable-background="new 346.0822 84.4584 1971.8356 1831.0833"
	 xml:space="preserve">
<g id="_x23_000000ff">
	<path stroke="#000000" stroke-width="0.0938" d="M410.1106,143.8654c16.93-0.02,33.85-0.01,50.78-0.01
		c-0.02,79.9,0.04,159.79-0.03,239.68c115.52,0.03,231.04,0.01,346.56,0.01c-0.12-3.13-0.23-6.58,2.03-9.05
		c1.9399-1.69,4.0099-3.24,5.83-5.09c3.11-0.56,6.16-1.62,9.36-1.55c39,0.02,78,0.03,117.01,0c3.25-0.1,6.36,1.01,9.54,1.55
		c3.03,3.06,6.75,5.78,7.83,10.19c-0.04,1.31-0.06,2.62-0.0699,3.94c285.2,0.04,570.4,0,855.6,0.02c0.45-2.43,0.9399-4.88,1.89-7.17
		c1.28-3.13,4.53-4.63,6.83-6.91c2.73-0.77,5.51-1.65,8.4-1.61c36.01,0.01,72.03,0,108.05,0.01c5.74,0.06,11.5399-0.4,17.21,0.84
		c5.9299,2.43,10.62,8.21,10.35,14.85c89.33-0.03,178.66,0,268.0001-0.02c-0.0601,16.68-0.04,33.35-0.01,50.03
		c-96.23,0.03-192.4601-0.01-288.6801,0.02c-2.7101,7.48-6.17,14.66-9.2201,22c-10.24,24.01-20.33,48.08-30.6799,72.05
		c2.22,5.18,4.14,10.5,6.5599,15.6c3.65,8.93,7.5701,17.75,11.36,26.6299c1.8501,4.66,3.6901,9.34,5.9901,13.8
		c31.0299-0.05,62.0499,0,93.08-0.02c30.0999-0.62,60.4399,4.49,88.4099,15.8c16.5701,6.6801,32.6201,15.02,47.0701,25.57
		c15.8601,10.86,29.6699,24.45,42.3101,38.87c9.9199,12.37,19.4299,25.23,26.45,39.52c3.71,6.33,6.5601,13.1,9.46,19.83
		c1.51,4.38,3.6101,8.54,4.76,13.05c1.1201,2.95,2.0701,5.97,3,9c0.3801,1.3,0.74,2.62,1.21,3.93
		c4.1702,17.23,7.3801,34.83,7.55,52.59c0,278.6599-0.01,557.3199,0.01,835.98c0.3301,5.35-1.0701,10.6-0.79,15.96
		c-1.3298,12.02-3.6199,23.9-6.4099,35.67c-1.8201,4.85-2.6602,10-4.5601,14.83c-10.5901,30.4-27.3999,58.8301-49.95,81.89
		c-2.6501,3.6901-6.05,6.8101-9.52,9.7101c-23.03,21.5499-50.6101,38.37-80.53,48.4299c-2.98,1.09-5.99,2.04-9,2.99
		c-3.9399,1.16-7.8401,2.5-11.9102,3.02c-1.0198,0.27-2.0198,0.55-2.99,0.83c-11.72,2.55-23.6099,4.25-35.5598,4.9601
		c-396-0.03-792.01,0-1188.01-0.01c-29.18,0.7899-58.46-4.98-85.53-15.8301c-59.15-23.74-107.15-73.7-128.11-133.9399
		c-0.96-3.09-1.85-6.2-3.09-9.17c-0.5-1.7-0.88-3.4-1.3-5.09c-1.32-3.9399-2.37-7.98-2.95-12.09c-2.97-12.49-4.65-25.36-4.9-38.1901
		c-1.08-2.87-0.49-5.99-0.62-8.95c0.01-274.36,0-548.7101,0-823.06c-0.3-13.42,1.53-26.73,3.38-40c2.11-10.25,4.17-20.57,7.65-30.45
		c20.85-66.08,74.35-120.85,139.9901-143.12c2.98-1.01,5.96-2.03,8.96-2.99c0.97-0.27,1.95-0.52,2.94-0.7401
		c9.12-3.03,18.66-4.52,28.07-6.34c8.15-1.53,16.43-1.39,24.59-2.62c4.7599-10.98,9.48-21.98,14.15-33
		c3.07-7.08,5.72-14.39,9.34-21.2c-0.03-3.45-2.05-6.38-3.12-9.55c-12.34-28.69-24.36-57.51-36.76-86.16
		c-28.89-0.01-57.79,0.02-86.68-0.02c-5.99-0.2-11.82,1.4-17.59,2.78c-10.46,1.99-20.79,4.71-30.97,7.84
		c-1.31,0.41-2.64,0.76-3.94,1.16c-3.01,0.96-6.04,1.87-8.99,3.01c-44.1,14.67-85.4301,37.89-120.5701,68.34
		c-28.05,24-51.68,53.15-69.61,85.4301c-7.87,15.28-15.4,30.82-20.49,47.27c-2.24,5.51-3.33,11.38-5.23,17
		c-0.29,1.61-0.68,3.2-1.05,4.8c-0.62,2.15-1.47,4.3-1.37,6.59c0,72.08,0.04,144.17-0.02,216.26c-16.04,0.59-32.12,0.1-48.18,0.26
		c-1.6,0.38-3-0.86-2.56-2.5C410.1206,642.4954,410.1306,393.1754,410.1106,143.8654 M460.8606,433.5954
		c0.13,46.97-0.11,93.95,0.12,140.93c13.67-22.55,29.57-43.86,48.07-62.66c4.34-5.54,9.63-10.23,14.94-14.79
		c6.11-6.68,13.67-11.74,20.2599-17.89c12.42-9.57,25.01-18.96,38.44-27.08c10.4-6.92,21.61-12.51,32.5701-18.48
		C563.7906,433.5354,512.3206,433.6054,460.8606,433.5954 M858.5707,433.6254c2.8199,5.76,4.8199,11.9,7.66,17.67
		c5.49,13.43,11.48,26.67,16.84,40.16c0.83-2.45,1.93-4.79,2.87-7.2c4.37-9.54,8.18-19.32,12.44-28.91
		c3.05-7.28,5.92-14.67,9.49-21.73C891.4307,433.5654,875.0007,433.5554,858.5707,433.6254 M899.3406,526.2754
		c-0.84,1.75,0.1,3.5,0.77,5.13c3.03,6.59,5.73,13.33,8.65,19.98c4.44,10.64,8.93,21.27,13.54,31.84c0.6,0.11,1.79,0.33,2.39,0.44
		c309.0599-0.02,618.12,0,927.1799-0.01c2.16-5.89,4.9-11.54,7.17-17.38c3.13-6.93,6.11-13.94,9.01-20.98
		c1.9301-4.69,4.0599-9.3,5.88-14.04c0.5-1.1,1.04-2.19,1.58-3.28c-1.5699-3.53-2.86-7.17-4.5399-10.63
		c-4.9601-11.69-9.8201-23.42-14.9301-35.04c-6.6899-16.32-13.86-32.44-20.59-48.75c-298.92,0.08-597.85-0.03-896.78,0.06
		C925.6406,464.5354,912.5206,495.4254,899.3406,526.2754 M1887.7506,483.3854c1.01,2.53,2.3,4.96,3.1001,7.59
		c3.99-7.64,6.6399-15.91,10.4299-23.66c4.61-11.33,9.4501-22.58,14.35-33.79c-16.3099,0.17-32.62-0.05-48.9299,0.11
		C1873.6206,450.2554,1880.8507,466.7554,1887.7506,483.3854 M882.3207,566.0454c-2.23,5.93-5.02,11.65-7.14,17.63
		c5.39-0.06,10.78,0.04,16.17-0.08c-2.75-6.29-5.49-12.57-8.14-18.9C882.9907,565.0354,882.5406,565.7054,882.3207,566.0454
		 M1882.7506,583.7154c5.51-0.13,11.03-0.04,16.5601-0.06c-2.84-6.34-5.52-12.74-8.33-19.08
		C1888.4307,571.0354,1885.7107,577.4354,1882.7506,583.7154 M794.2007,631.3054c-10.27,2.94-19.9,7.62-29.3701,12.46
		c-43.74,23.21-77.43,64.6201-90.97,112.29c-4.47,14.82-6.54,30.3-7.59,45.7c0.03,279.03-0.02,558.06,0.02,837.09
		c0.88,4.88,0.46,9.87,1.32,14.7699c0.38,4.1101,1.58,8.1101,1.81,12.25c1.06,4.8401,2.23,9.66,3.33,14.5
		c1.07,3.67,2.24,7.3,3.38,10.9601c8.17,24.22,21.21,46.84,38.54,65.6599c3.57,3.3201,6.02,7.7301,10.22,10.4
		c6.14,6.26,13.26,11.42,20.15,16.8201c8.21,5.48,16.58,10.76,25.51,15.01c8.85,4.62,18.35,7.7799,27.72,11.1699
		c14.1801,3.9701,28.72,7.01,43.45,7.63c5-0.25,9.97,0.0801,14.92,0.73c388.03-0.01,776.05-0.01,1164.0801-0.01
		c4.2799-0.0599,8.63,0.3101,12.88-0.61c18.1698,0.01,36.2999-3.2999,53.5699-8.9299c21.0999-6.53,40.6699-17.47,58.1001-30.97
		c25.3398-20.0701,45.2898-46.8401,57.3398-76.8501c0.8801-2.35,1.74-4.7,2.5901-7.0499c1.0999-2.97,2.1599-5.9501,3.02-8.99
		c4.99-17.0701,7.97-34.79,7.5999-52.5801c-0.0598-279.37,0.1101-558.74-0.0898-838.11c-0.7-1.88-0.6802-3.89-0.71-5.85
		c-0.3101-6.83-2.25-13.4-3.0801-20.15c-3.96-16.2599-9.26-32.25-17.1301-47.06c-8.2898-15.07-18.01-29.52-30.1799-41.7599
		c-2.78-4.1801-7.3201-6.6-10.51-10.41c-13.21-11.86-28.1799-21.85-44.1699-29.54c-9.3701-4.07-18.75-8.29-28.6802-10.81
		c-18.3298-5.4-37.5498-7.73-56.6299-7.34c-388.99,0-777.99,0-1166.98,0C836.1907,621.2854,814.5107,624.1954,794.2007,631.3054z"/>
	<path stroke="#000000" stroke-width="0.0938" d="M963.4907,859.9454c10.2,0,20.41-0.01,30.62,0.0099
		c-0.05,56.7401,0.04,113.4901-0.04,170.23c9.22,0.01,18.45,0.01,27.67,0.01c0.07-56.69-0.13-113.39,0.1-170.08
		c1.22,2.34,2.32,4.75,3.48,7.13c3.0599,7.63,6.9399,14.92,9.63,22.7c1.75,5.1,3.9399,10.03,5.7699,15.11
		c1.5701,4.34,3.3201,8.65,4.29,13.19c0.55,1.55,1.09,3.11,1.65,4.68c0.41,1.45,0.85,2.92,1.3199,4.37
		c2.9,7.43,3.92,15.44,6.4701,22.99c0.36,1.53,0.7599,3.06,1.12,4.62c2.2599,9.91,4.21,19.89,6.0299,29.89
		c0.77,7.67,2.1901,15.25,3.2201,22.9c0.59,9.69,1.6599,19.34,2.48,29.0199c-0.04,10.7001,0.0699,21.41-0.05,32.1101
		c-0.64,4.25-1.77,8.4299-2.71,12.62c-2.8301,10.87-8.92,20.62-16.0801,29.16c-10.49,11.21-24.12,19.1799-33.5699,31.4199
		c-3.86,5.05-7.6899,10.4-9.23,16.6801c-1.77,10.6-0.91,21.39-1.1,32.09c0,144.36-0.01,288.72,0,433.08c-17.18,0-34.37,0-51.55,0
		c0.0099-138.7,0-277.3999,0.0099-416.1c-0.19-16.52,0.36-33.0599-0.28-49.5499c-3.61-10.1801-10.64-18.78-18.43-26.1001
		c-6.45-5.5599-13.01-10.98-19.46-16.5199c-9.86-9.2301-17.38-21.14-21.06-34.16c-1.06-4.51-2.18-9.03-2.71-13.64
		c-0.1299-8,0-16.01-0.05-24.01c-0.38-11.78,2.17-23.38,2.36-35.13c0.86-7.31,2.52-14.49,3.23-21.82
		c0.55-5.75,2.22-11.29,3.13-16.98c0.51-3.1,1.14-6.18,2.05-9.19c0.33-1.65,0.53-3.31,0.83-4.95c0.97-3.35,2.23-6.63,2.78-10.08
		c0.76-3.16,1.58-6.29,2.63-9.35c3.51-12.89,7.89-25.56,12.62-38.05c2.24-5.29,4.1-10.72,6.34-16c3.32-6.89,6.18-13.99,9.62-20.81
		c-0.08,56.25-0.01,112.51-0.04,168.76c8.9901-0.01,17.98,0.0199,26.97-0.02C963.4207,973.4354,963.5306,916.6954,963.4907,859.9454
		z"/>
	<path stroke="#000000" stroke-width="0.0938" d="M1852.8806,860.5154c1.4401,0.19,2.92,0.39,4.39,0.71
		c6.9,1.14,13.1801,4.26,19.55,7.03c2.83,1.64,5.39,3.72,8.2999,5.27c4.78,2.5,7.66,7.34,12.0601,10.37
		c4.4,5.75,9.6899,10.88,13.24,17.25c2.96,5.07,6.5699,9.81,8.6,15.38c2.3301,4.98,4.8101,9.9,6.51,15.15
		c0.4401,1.54,0.91,3.08,1.4301,4.63c0.58,1.49,1.09,3.01,1.61,4.55c0.4299,1.47,0.9,2.96,1.41,4.43
		c0.6499,1.68,1.1899,3.42,1.6399,5.19c0.4,2.66,0.9,5.32,1.74,7.9c0.89,3.34,1.5701,6.74,2.2201,10.15
		c2.1599,13.05,4.47,26.13,4.7999,39.37c1.2101,3.32,0.2101,6.9301,0.8301,10.36c0.8099,3.79,0.52,7.68,0.5599,11.52
		c0,11.35-0.01,22.7,0.01,34.05c-0.03,2.9299,0.15,5.8999-0.41,8.8099c-0.9299,4.6801,0.1801,9.51-0.73,14.21
		c-0.88,4.3,0.12,8.7401-0.72,13.0601c-0.84,3.8101,0.03,7.76-0.74,11.58c-0.84,3.67,0,7.4801-0.8,11.16
		c-0.89,3.7001,0.3,7.62-1,11.25c-0.21,13.0601-2.0699,25.98-2.6,39.02c-1.08,13.97-2.29,27.95-3.45,41.92
		c-0.85,13.89-2.85,27.71-2.9701,41.63c-5.2599,0.0199-10.5099,0.01-15.75,0.0199c0,122.4601,0,244.9301,0.01,367.39
		c-17.1799-0.01-34.36,0-51.5299,0c0.0399-122.46-0.02-244.9199,0.0299-367.38c-2.7799-0.0199-5.5299-0.0199-8.2799-0.0299
		C1852.9307,1124.4854,1852.8407,992.5054,1852.8806,860.5154z"/>
	<path stroke="#000000" stroke-width="0.0938" d="M1408.6707,869.6354c10.59-1.38,21.33-0.47,32-0.73
		c6.98,0.26,14.05-0.62,20.96,0.62c14.5601,0.48,28.99,2.67,43.4,4.79c14.2001,2.65,28.27,5.96,42.11,10.08
		c3.01,0.98,6.0701,1.85,9.03,3.03c3,0.96,6.03,1.84,9,2.96c36.16,13.17,70.11,32.35,100.03,56.5699
		c7.1799,5.17,13.49,11.41,20.3099,17.04c6.3101,6.97,14.2001,12.33,20,19.79c35.9601,36.89,64.6901,81.16,82.12,129.75
		c0.66,1.9,1.3401,3.8,2.05,5.71c0.3099,1.1001,0.61,2.2201,0.96,3.3501c3.38,8.86,5.4,18.1399,8.0601,27.22
		c0.64,4.78,2.1799,9.39,2.9399,14.16c2.5701,11.21,3.78,22.6499,5.25,34.0399c0.79,3.22-0.03,6.64,1.11,9.8
		c0.02,4.3199,0.04,8.64,0.79,12.91c0.11,13.0199-0.02,26.0499,0.0601,39.0699c-0.92,14.3-1.9301,28.64-4.2201,42.84
		c-0.36,2.5601-0.87,5.0901-1.22,7.66c-0.79,3.12-1.16,6.3199-1.7,9.49c-2,8.86-4.0601,17.7-6.48,26.45
		c-0.42,1.3301-0.76,2.6801-1.14,4.04c-1.2001,3.59-2.27,7.23-3.36,10.87c-0.38,1.09-0.7101,2.2101-1.01,3.35
		c-3.8201,10.0601-7.37,20.2301-12,29.9601c-15.4801,34.5-36.6901,66.3199-61.99,94.38
		c-7.5701,9.0599-16.4801,16.8999-24.65,25.4199c-24.53,22.8-51.6,43.12-81.3301,58.6801c-10.73,5.38-21.4099,10.87-32.6,15.24
		c-6.3199,2.4-12.59,4.9-18.96,7.16c-3.99,1.2999-8.03,2.4099-12.02,3.71c-13.12,3.76-26.4,7.21-39.9,9.3101
		c-12.09,2.5199-24.4299,3.46-36.66,4.96c-3.9399,0.16-7.8899-0.0601-11.7599,0.76c-13.39,0.1599-26.79-0.01-40.17,0.08
		c-17.25-1.02-34.58-2.5-51.6-5.8099c-13.48-2.1001-26.67-5.74-39.8401-9.25c-3.35-1.2201-6.73-2.3301-10.11-3.4301
		c-36.83-12.03-71.34-30.71-102.1599-54.12c-11.78-9.13-23.3601-18.59-33.8501-29.1801c-6.2799-5-11.7699-10.9299-16.9399-17.0299
		c-4.39-3.92-7.9-8.64-11.97-12.8501c-25.8201-30.22-47.29-64.2599-62.14-101.1799c-1.51-4.38-3.3601-8.62-4.76-13.02
		c-0.5701-1.52-1.11-3.03-1.63-4.53c-0.4401-1.52-0.88-3-1.3501-4.47c-1.2-2.95-2.0499-6.02-3.0299-9.03
		c-0.4301-1.36-0.77-2.72-1.16-4.0599c-0.24-1.01-0.49-2-0.74-2.9601c-0.88-3.24-1.83-6.46-2.58-9.71
		c-0.6801-2.74-1.15-5.52-1.8501-8.24c-0.36-1.86-0.7799-3.6799-1.1799-5.5c-0.8201-4.08-1.54-8.17-2.24-12.25
		c-1.73-10.25-3.0901-20.59-3.77-30.96c-0.85-4.52-0.14-9.17-1.15-13.67c-0.17-14.0499-0.08-28.11-0.04-42.16
		c0.7301-4.2699,0.78-8.6,0.8-12.9199c1.51-12.9301,2.89-26.03,5.47-38.87c0.8301-6.4701,2.98-12.67,3.8-19.15
		c0.98-3.33,2.24-6.6,2.77-10.04c4.7999-17.64,11.2-34.8199,18.63-51.5c3.5699-7.4,7.3199-14.7,10.97-22.05
		c17.2001-31.1599,38.62-60.0899,63.85-85.2199c35.9401-37.12,79.3-67.36,127.36-86.59c6.29-2.36,12.4901-4.99,18.92-6.99
		c6.14-1.91,12.27-3.91,18.49-5.62c17.61-4.77,35.59-8.16,53.67-10.47C1395.1007,870.6654,1401.8606,869.8554,1408.6707,869.6354
		 M1390.7706,973.9554c-10.8099,0.65-21.01,4.71-31.61,6.6c-4.71,1.34-9.25,3.27-13.9399,4.69c-2.6801,1-5.3501,2.04-8.04,2.97
		c-18.75,7.13-36.37,17.07-53.11,28.11c-5.35,4.28-10.98,8.2-16.4,12.3799c-5.51,4.2401-10.25,9.3701-15.66,13.7001
		c-4.71,4.47-9.26,9.11-13.8199,13.73c-2.62,3.41-5.64,6.46-8.75,9.4l-0.14,0.9299c-6.3,5.74-10.51,13.27-15.9,19.79
		c-6.5599,8.77-11.86,18.38-17.48,27.75c-4.3101,9.04-9.08,17.87-12.77,27.1901c-0.84,3.6-2.39,6.96-3.66,10.4199
		c-0.5599,2.01-1.2699,3.9801-1.97,5.9501c-1.71,4.28-2.9199,8.74-3.62,13.2999c-1.5599,6.62-3.98,13.1001-4.38,19.9301
		c-0.16,0.38-0.47,1.13-0.63,1.51c-0.76,10.61-3.6899,21-3.12,31.7c-1.0499,2.79-0.6,5.8201-0.6699,8.74
		c0.1,7.9501-0.17,15.91,0.12,23.8601c0.88,4.0199,0.5199,8.1399,0.7,12.23c2.04,12.11,2.67,24.47,6.11,36.3199
		c0.5701,2.21,1.02,4.46,1.5,6.71c0.84,3.8101,1.96,7.55,2.9301,11.3301c2.52,5.61,3.87,11.64,6.33,17.28
		c0.48,1.6,1.01,3.22,1.58,4.83c1.9601,5.04,4.92,9.64,6.9301,14.67c3.8,9.35,9.55,17.6799,14.72,26.2999
		c4.16,7.38,9.67,13.87,14.6901,20.67c3.51,5.65,8.51,10.02,12.64,15.1699c5.8199,5.8301,10.8099,12.5,17.3199,17.64
		c3.47,2.86,6.3,6.42,9.99,9.05c5.6,5.87,12.75,9.91,18.91,15.14c5.84,5.0399,12.78,8.48,19.1799,12.72
		c10.9,6.84,22.6801,12.09,34.3101,17.54c3.65,1.47,7.5599,2.2999,11.12,4.0499c2.99,0.9401,5.98,1.92,8.95,2.99
		c6.67,2.78,13.9401,3.42,20.8301,5.54c8.12,2.25,16.5,3.23,24.84,4.33c4.63,0.5601,9.21,1.76,13.92,1.4901
		c4.34-0.2201,8.58,1.11,12.9399,0.75c10.3101-0.3401,20.7,0.71,30.9401-0.7201c10.08,0.3401,19.9099-2.38,29.9199-3.1799
		c11.76-2.1801,23.38-5.23,34.86-8.63c2.27-0.88,4.55-1.76,6.8501-2.6c13.59-4.15,26.24-10.75,38.85-17.1901
		c8.86-5.77,18.47-10.45,26.6-17.29c6.3099-5,13.24-9.26,18.91-15.01c3.95-2.7699,6.75-6.85,10.74-9.5499
		c7.64-6.99,14.26-14.9401,21.23-22.55c5-4.86,8.51-10.98,12.91-16.36c6.7899-8.38,11.8899-17.91,17.62-27.02
		c4.4099-6.9399,7.0299-14.7899,10.9299-22c2.9-5.26,4.3201-11.13,6.61-16.6499c0.28-1.1001,0.5801-2.1801,0.91-3.25
		c2.12-5.3601,4.15-10.79,5.3101-16.4601c0.88-4.3099,2.3099-8.49,3-12.84c2.6599-9.64,3.1899-19.67,4.87-29.49
		c1.1399-5.47-0.0601-11.11,1.2-16.55c0.15-10.08,0.14-20.1699-0.01-30.25c-1.48-4.5599,0.05-9.48-1.04-14.12
		c-2-10.23-2.1599-20.77-5.0599-30.83c-0.88-4.01-2.16-7.91-2.99-11.9301c-1.78-9.9199-6.4501-19.02-9.17-28.6799
		c-3.98-9.29-8.53-18.3201-13.08-27.3301c-6.02-9.9299-11.5601-20.22-18.89-29.27c-9.66-13.71-21.12-25.98-32.97-37.7799
		c-9.8-9.01-19.62-18.0701-30.66-25.59c-4.98-4.17-10.53-7.55-16.12-10.82c-13.08-8.63-27.41-15.16-41.8101-21.2
		c-9.6499-3.04-18.9399-7.25-28.9399-9.11c-13.34-3.9-27.12-5.56-40.85-7.45c-5.11-1-10.38,0.15-15.4601-1.06
		c-9.7799-0.19-19.59-0.2-29.37,0c-4.5,1.06-9.12,0.31-13.6599,0.79C1402.1506,972.2554,1396.4707,973.1754,1390.7706,973.9554z"/>
	<path stroke="#000000" stroke-width="0.0938" d="M1399.5106,999.8154c16.9301-3.06,34.1801-2.49,51.3401-2.38
		c3.84,0.8,7.7599,0.54,11.6599,0.77c7.17,1.1801,14.37,2.21,21.6,3.03c9.3701,2.27,18.8401,4.29,28.0601,7.14
		c11.35,4.05,22.76,8.06,33.41,13.8c9.3199,4.26,17.8099,10.0399,26.5499,15.34c7.7001,5.9,15.6801,11.4301,23.0801,17.72
		c5.7999,5.88,12.3099,10.99,17.9299,17.0901c6.16,7.1599,13,13.75,18.48,21.51c4.8401,6.75,10.3301,13.0499,14.29,20.3999
		c3.29,6.0801,7.79,11.5,10.1901,18.03c2.7999,6.41,6.6,12.37,8.7899,19.05c2.3301,7.54,5.7101,14.77,7.48,22.48
		c2.26,9.71,5.25,19.3101,6.02,29.29c0.8101,6.24,2.4,12.4099,2.05,18.75c1.3099,8.58,0.45,17.2999,0.7,25.95
		c-0.23,3.61,0.5701,7.4-0.62,10.9c0.29,7.08-0.95,14.02-2.09,20.98c-0.48,4.95-0.78,9.99-2.36,14.75c-0.74,2.96-1.3,5.95-2.16,8.89
		c-1.39,4.29-1.67,8.85-3.39,13.04c-3.6699,9.6599-6.33,19.74-11.34,28.84c-2.75,4.76-4.1801,10.17-7.3101,14.71
		c-5.0699,7.97-9.51,16.38-15.3899,23.8101c-5.55,7.33-10.92,14.89-17.5901,21.26c-7.4399,9.22-16.62,16.7799-25.13,24.9399
		c-7.84,6.21-15.6699,12.47-24,18.01c-7.39,4.22-14.2899,9.29-21.98,12.97c-7.0499,2.7201-13.41,6.9501-20.62,9.3
		c-5.0599,1.58-9.9299,3.71-15.01,5.23c-6.86,2.73-14.25,3.58-21.3099,5.62c-9.2001,2.59-18.8201,2.78-28.17,4.52
		c-3.5601,0.51-7.28-0.47-10.71,0.8099c-6.4401,0.2301-12.89,0.05-19.3201,0.1101c-4.97-0.1001-9.98,0.38-14.86-0.65
		c-9.89-0.02-19.61-2.16-29.4-3.35c-11.5599-2.4901-23.14-5.1001-34.21-9.3101c-5.64-2.34-11.6899-3.6801-17.03-6.71
		c-5.49-3.0801-11.5699-4.9601-16.9299-8.26c-7.1001-4.3301-14.28-8.52-21.17-13.15c-6.63-5.1-13.53-9.85-19.86-15.33
		c-7.5601-7.2201-15.5701-13.9801-22.5-21.8401c-2.5701-3.51-6.1-6.14-8.74-9.5699c-5.14-6.49-10.2001-13.04-15.1-19.71
		c-4.7201-6.9701-8.5901-14.4701-13.25-21.4701c-3.3501-7.85-7.62-15.2799-10.6901-23.26c-2.03-4.62-3.0599-9.61-5.27-14.1499
		c-0.4199-1.5-0.84-2.9601-1.2999-4.41c-0.8401-2.0701-1.4301-4.22-1.99-6.35c-0.16-1.9-0.5601-3.75-0.99-5.5801
		c-0.4601-1.4099-0.8201-2.7999-1.2401-4.1899c-0.59-2.6-1.1499-5.21-1.85-7.77c-1.46-7.37-1.7799-14.9-3.1699-22.28
		c-0.66-3.13-0.11-6.35-0.5-9.49c-1.0801-5.22-0.4601-10.58-0.61-15.86c0.12-5.91-0.25-11.83,0.1799-17.71
		c0.77-3.4301,0.5-6.9401,0.67-10.41c0.76-4.27,1.24-8.5699,1.9-12.85c0.5199-5.66,1.6-11.22,3.0699-16.6901
		c1.58-6.2899,2.5599-12.75,4.9399-18.7999c0.28-1.0901,0.5701-2.16,0.87-3.2101c3.7001-9.1,6.3701-18.6599,11.2301-27.2699
		c3.99-8.91,9.0199-17.27,14.2-25.53c4.77-7.9401,10.85-14.98,16.25-22.4801c8.95-10.1499,17.72-20.5499,28.1901-29.2
		c6.59-7,14.6299-12.36,22.25-18.14c8.1899-6.6,17.6499-11.35,26.5199-16.96c8.42-3.52,16.26-8.34,24.89-11.41
		c5.49-1.47,10.6801-3.8,16.0801-5.55c4.21-1.63,8.7699-1.94,13.0499-3.33c2.5801-0.64,5.1901-1.2,7.78-1.84
		C1389.0406,1000.7454,1394.3407,1000.5954,1399.5106,999.8154z"/>
</g>
</svg>
